<?xml version="1.0" encoding="UTF-8" standalone="no"?>
<!-- Generator: Adobe Illustrator 25.4.1, SVG Export Plug-In . SVG Version: 6.00 Build 0)  -->

<svg
   version="1.1"
   id="svg2983"
   inkscape:export-filename="/Users/david/Downloads/FGX_Logo_Standard.png"
   inkscape:export-xdpi="300"
   inkscape:export-ydpi="300"
   inkscape:version="1.1 (c4e8f9e, 2021-05-24)"
   sodipodi:docname="FGX_Logo_Full_White.svg"
   x="0px"
   y="0px"
   viewBox="0 0 335.1 90.5"
   style="enable-background:new 0 0 335.1 90.5;"
   xml:space="preserve"
   xmlns:inkscape="http://www.inkscape.org/namespaces/inkscape"
   xmlns:sodipodi="http://sodipodi.sourceforge.net/DTD/sodipodi-0.dtd"
   xmlns="http://www.w3.org/2000/svg"
   xmlns:svg="http://www.w3.org/2000/svg"><defs
   id="defs837" />
<style
   type="text/css"
   id="style824">
	.st0{fill:#59CF4A;}
	.st1{fill:#579E26;}
	.st2{fill:#457538;}
	.st3{fill:#FFFFFF;}
</style>
<sodipodi:namedview
   bordercolor="#666666"
   borderopacity="1.0"
   fit-margin-bottom="0"
   fit-margin-left="0"
   fit-margin-right="0"
   fit-margin-top="0"
   id="namedview2985"
   inkscape:current-layer="layer1"
   inkscape:cx="43.905942"
   inkscape:cy="47.710067"
   inkscape:document-units="mm"
   inkscape:pagecheckerboard="0"
   inkscape:pageopacity="0.0"
   inkscape:pageshadow="2"
   inkscape:window-height="1035"
   inkscape:window-maximized="0"
   inkscape:window-width="1440"
   inkscape:window-x="32"
   inkscape:window-y="25"
   inkscape:zoom="3.1544705"
   pagecolor="#ffffff"
   showgrid="false">
	</sodipodi:namedview>
<g
   id="layer1"
   transform="translate(-80.919999,-86.974139)"
   inkscape:groupmode="layer"
   inkscape:label="Layer 1">
	
		<path
   id="path25"
   inkscape:export-filename="/Users/david/Downloads/FGX_Logo.png"
   inkscape:export-xdpi="96"
   inkscape:export-ydpi="96"
   class="st0"
   d="   M154.1,175.6v-16.1h-31.5l9.5,16.1L154.1,175.6z" />
	
		<path
   id="path27"
   inkscape:export-filename="/Users/david/Downloads/FGX_Logo.png"
   inkscape:export-xdpi="96"
   inkscape:export-ydpi="96"
   class="st1"
   d="   M154.1,141.8v-16.1h-51.5l9.5,16.1H154.1z"
   style="fill:#ffffff;fill-opacity:1" />
	
		<path
   id="path29"
   inkscape:export-filename="/Users/david/Downloads/FGX_Logo.png"
   inkscape:export-xdpi="96"
   inkscape:export-ydpi="96"
   class="st2"
   d="   M154.1,104.9V88.9H80.9l9.5,16.1H154.1z"
   style="fill:#ffffff;fill-opacity:1" />
	
		<path
   id="path31"
   inkscape:export-filename="/Users/david/Downloads/FGX_Logo.png"
   inkscape:export-xdpi="96"
   inkscape:export-ydpi="96"
   class="st3"
   d="   M174,88.9h54.9v16h-38v21h32.6v16h-32.6v33.8H174V88.9z" />
	
		<path
   id="path33"
   inkscape:export-filename="/Users/david/Downloads/FGX_Logo.png"
   inkscape:export-xdpi="96"
   inkscape:export-ydpi="96"
   class="st3"
   d="   M286.7,177.5c-25.3,0-44.5-20.3-44.5-45.2c0-25,19.9-45.3,44.5-45.3c14.6,0,24.8,4.6,32.1,11.9l-11.2,12.9   c-5.1-4.5-12-7.8-20.7-7.8c-14.9,0-26.7,12.7-26.7,28.4c0,15.6,11.8,28.3,27.7,28.3c5.3,0,10.3-1.2,14.6-3.4v-24.5h16.9V168   C311.7,173.9,300.9,177.5,286.7,177.5" />
	
		<path
   id="path35"
   inkscape:export-filename="/Users/david/Downloads/FGX_Logo.png"
   inkscape:export-xdpi="96"
   inkscape:export-ydpi="96"
   class="st3"
   d="   M376.7,116.2l18.7-27.3h19.1l-28.3,41.7l29.8,45.1h-21.1l-20-30l-20.6,30h-18.9l30-44.3l-28.4-42.5h21.8L376.7,116.2z" />
	<path
   id="path8523"
   class="st0"
   d="M132,175.1c-0.1-0.2-2.1-3.5-4.3-7.3s-4.3-7.3-4.5-7.5l-0.3-0.5h15.6H154v7.8v7.8h-10.9   C134.7,175.4,132.2,175.4,132,175.1z" />
	<path
   id="path8562"
   class="st0"
   d="M132,175.1c-0.1-0.2-2.1-3.5-4.4-7.3c-2.3-3.9-4.3-7.3-4.5-7.5l-0.3-0.5h15.6H154v7.8v7.8h-10.9   C134.7,175.4,132.2,175.4,132,175.1z"
   style="fill:#fffffa;fill-opacity:1;stroke:#ffffff;stroke-opacity:1" />
</g>
</svg>
